<?xml version="1.0" standalone="no"?>
<!DOCTYPE svg PUBLIC "-//W3C//DTD SVG 20010904//EN"
 "http://www.w3.org/TR/2001/REC-SVG-20010904/DTD/svg10.dtd">
<svg version="1.0" xmlns="http://www.w3.org/2000/svg"
 width="1071.000000pt" height="1071.000000pt" viewBox="0 0 1071.000000 1071.000000"
 preserveAspectRatio="xMidYMid meet">

<g transform="translate(0.000000,1071.000000) scale(0.100000,-0.100000)"
fill="#000000" stroke="none">
<path d="M4822 10520 c-18 -11 -39 -20 -47 -20 -22 0 -129 -98 -139 -128 -5
-15 -17 -38 -27 -51 -11 -13 -19 -37 -19 -52 0 -16 -9 -46 -20 -66 -12 -22
-20 -57 -20 -83 0 -25 -7 -56 -16 -68 -9 -13 -19 -50 -24 -83 -5 -34 -15 -68
-23 -78 -8 -9 -17 -40 -20 -70 -4 -29 -13 -63 -20 -75 -8 -11 -17 -47 -20 -79
-3 -32 -12 -68 -20 -80 -8 -12 -17 -49 -22 -82 -4 -33 -16 -77 -26 -97 -10
-20 -19 -55 -19 -76 0 -24 -8 -49 -20 -65 -12 -15 -20 -40 -20 -64 0 -21 -8
-54 -19 -73 -10 -19 -21 -63 -24 -98 -3 -34 -11 -70 -18 -79 -26 -31 -87 -62
-143 -72 -32 -6 -69 -20 -83 -31 -14 -11 -32 -20 -39 -20 -14 0 -96 -96 -122
-144 -23 -42 -21 -315 3 -349 9 -14 15 -44 15 -84 0 -52 4 -66 23 -83 18 -18
22 -32 22 -84 0 -49 5 -68 23 -90 13 -18 22 -43 22 -64 0 -20 7 -43 15 -52 8
-9 17 -44 20 -81 4 -41 12 -74 25 -91 15 -20 20 -43 20 -86 0 -46 4 -63 20
-77 16 -15 20 -31 20 -84 0 -54 4 -70 20 -84 14 -12 20 -29 20 -59 0 -29 7
-49 21 -64 17 -19 21 -35 20 -80 -1 -47 3 -62 21 -81 17 -18 23 -39 26 -88 3
-46 9 -69 23 -81 11 -9 19 -27 19 -40 0 -23 10 -37 68 -99 79 -85 116 -110
172 -118 74 -10 88 -11 209 -3 90 6 105 9 121 29 16 19 26 22 81 19 53 -2 66
1 87 20 20 20 33 23 85 20 54 -2 64 1 78 20 14 18 27 22 80 23 44 1 73 7 93
20 40 27 152 31 165 7 5 -10 12 -110 15 -222 4 -121 10 -208 17 -215 6 -6 132
-10 361 -11 313 -1 352 -3 360 -18 5 -10 22 -16 41 -16 22 0 41 -9 59 -27 15
-16 35 -36 45 -46 70 -69 66 -58 69 -187 2 -93 -1 -121 -12 -131 -8 -6 -14
-18 -14 -27 0 -20 -67 -82 -89 -82 -10 0 -31 -12 -48 -27 l-31 -28 -5 -209
c-6 -214 -20 -308 -57 -391 -55 -122 -73 -156 -93 -167 -32 -17 -19 -36 31
-45 26 -4 386 -8 800 -8 658 0 754 2 762 15 6 9 10 292 11 710 1 382 4 740 8
795 5 87 8 100 25 103 25 5 124 -46 137 -70 7 -12 17 -17 29 -13 12 4 28 -3
46 -20 15 -14 39 -25 55 -25 19 0 30 -6 34 -20 4 -14 15 -20 34 -20 15 0 36
-9 46 -20 10 -11 31 -20 46 -20 18 0 32 -7 39 -20 7 -13 21 -20 40 -20 19 0
33 -7 40 -20 7 -13 21 -20 40 -20 20 0 35 -8 46 -25 15 -24 18 -24 141 -23
106 1 126 3 130 17 4 15 86 62 108 61 12 0 1111 1098 1128 1127 7 11 20 35 31
54 10 18 25 40 33 48 9 9 13 25 9 41 -7 35 3 70 20 70 29 0 29 10 -13 160 -20
73 -66 144 -109 169 -19 11 -34 24 -34 29 0 5 -18 21 -40 36 -38 25 -46 26
-167 26 l-128 0 -39 -40 c-22 -22 -45 -40 -53 -40 -19 0 -96 -73 -530 -505
-216 -214 -401 -394 -412 -399 -16 -7 -31 -2 -63 19 -24 16 -77 46 -118 67
-41 22 -92 52 -112 68 -20 17 -43 30 -50 30 -8 0 -24 7 -37 17 -13 9 -43 26
-67 39 -24 13 -74 43 -112 68 -38 25 -76 46 -85 46 -9 0 -19 5 -23 11 -3 6
-23 18 -43 26 -33 14 -80 42 -182 110 -19 12 -42 23 -51 23 -9 0 -19 4 -23 9
-7 12 -202 111 -217 111 -5 0 -21 9 -35 20 -20 15 -41 20 -89 20 -34 0 -75 5
-91 11 -19 7 -164 10 -448 9 -446 -1 -622 -13 -665 -43 -16 -11 -44 -17 -78
-17 -38 0 -61 -6 -81 -21 -21 -15 -44 -21 -82 -22 -39 0 -57 -5 -66 -17 -8
-12 -34 -19 -80 -24 -38 -4 -75 -14 -85 -23 -9 -8 -43 -18 -75 -23 -32 -4 -71
-14 -88 -23 -16 -9 -52 -17 -79 -17 -32 0 -56 -6 -68 -17 -12 -10 -41 -18 -78
-21 -41 -3 -64 -10 -76 -23 -13 -15 -31 -19 -80 -19 -73 0 -87 13 -98 90 -4
25 -15 68 -26 95 -28 73 -60 185 -60 210 0 12 -8 46 -19 76 -10 30 -21 76 -26
104 -4 27 -13 62 -21 77 -8 15 -14 41 -14 58 0 17 -7 47 -17 68 -19 44 -46
139 -69 242 -9 41 -23 87 -30 102 -8 15 -14 34 -14 43 0 19 -75 121 -95 129
-8 3 -26 23 -40 45 -29 44 -27 75 5 84 18 5 20 14 20 81 0 65 3 77 20 86 16 9
20 21 20 65 0 43 5 59 20 72 16 14 20 30 20 75 0 50 4 61 26 80 23 21 25 27
18 84 -6 60 -5 63 21 80 25 16 26 20 20 79 -6 50 -4 65 10 78 9 9 21 17 27 17
7 0 8 17 4 50 -6 45 -5 51 19 66 22 15 25 23 25 81 0 55 4 70 25 95 22 26 24
35 18 88 -6 58 -5 60 22 70 24 9 27 14 21 45 -6 29 -4 35 11 35 10 0 24 -9 31
-20 11 -18 22 -20 74 -18 53 2 63 0 76 -20 13 -19 23 -22 83 -22 58 0 71 -3
81 -20 10 -16 24 -20 64 -20 41 0 54 -4 72 -25 27 -31 52 -23 52 15 0 16 5 32
10 35 17 10 11 55 -16 134 -35 101 -91 166 -185 214 -67 35 -77 37 -163 37
-73 0 -97 -4 -124 -20z"/>
<path d="M6480 9753 c-68 -3 -88 -7 -101 -22 -8 -10 -30 -22 -47 -26 -59 -12
-124 -57 -224 -153 -54 -52 -98 -99 -98 -105 0 -5 -11 -20 -25 -33 -14 -13
-25 -32 -25 -42 0 -11 -6 -25 -14 -31 -8 -7 -18 -25 -21 -41 -3 -15 -15 -45
-26 -66 -10 -21 -19 -55 -19 -75 0 -21 -8 -47 -20 -62 -18 -23 -20 -40 -20
-182 0 -118 4 -163 15 -185 8 -15 18 -53 21 -84 4 -31 13 -61 20 -67 8 -6 14
-16 14 -21 0 -14 61 -137 71 -144 5 -3 9 -13 9 -22 0 -18 194 -222 211 -222
18 0 109 -55 109 -67 0 -16 19 -21 57 -16 25 4 34 1 48 -20 l16 -25 157 1
c148 2 159 3 187 25 23 18 37 22 65 17 29 -5 41 -1 63 17 56 48 86 68 103 68
23 0 146 128 191 197 18 28 37 54 42 57 5 4 12 19 16 35 3 16 13 35 21 42 8 6
14 23 14 38 0 30 9 46 30 53 11 4 15 21 15 74 0 45 7 81 18 103 28 56 15 272
-22 364 -6 16 -11 41 -11 56 0 37 -85 203 -137 269 -50 63 -199 202 -217 202
-7 0 -27 11 -46 25 -19 14 -43 25 -53 25 -11 0 -34 8 -51 19 -34 21 -175 31
-336 24z"/>
<path d="M10546 8731 c-11 -12 -37 -20 -78 -25 -34 -3 -69 -13 -78 -21 -10 -9
-41 -18 -71 -21 -30 -4 -72 -15 -95 -25 -22 -10 -58 -19 -80 -19 -22 0 -57 -9
-79 -20 -22 -11 -59 -20 -85 -20 -33 0 -50 -5 -63 -20 -12 -15 -29 -20 -64
-20 -31 0 -59 -7 -78 -20 -20 -13 -47 -20 -79 -20 -32 0 -60 -7 -84 -22 -22
-13 -52 -22 -82 -22 -29 -1 -56 -8 -67 -17 -10 -9 -45 -20 -78 -24 -33 -4 -68
-14 -77 -22 -10 -9 -41 -18 -70 -20 -29 -3 -71 -14 -94 -24 -22 -10 -61 -19
-87 -19 -26 0 -55 -4 -65 -10 -9 -5 -30 -15 -46 -20 -17 -6 -25 -14 -20 -19
14 -14 438 -18 455 -4 23 18 90 33 150 33 38 0 61 5 69 15 24 29 65 18 112
-31 43 -46 43 -46 98 -40 49 4 59 10 90 46 19 22 41 40 48 40 8 0 12 13 10 43
l-3 42 45 3 c31 2 50 9 61 24 11 13 31 22 65 25 30 4 56 13 68 25 14 15 26 18
55 13 33 -5 40 -3 55 19 11 18 25 26 46 26 19 0 34 7 42 20 8 12 24 20 41 20
16 0 30 7 34 16 3 8 31 27 62 40 59 26 114 71 105 86 -10 15 -71 8 -88 -11z"/>
<path d="M2600 6550 c-26 -10 -59 -35 -80 -58 -35 -41 -35 -41 -91 -35 -42 4
-71 0 -116 -15 -42 -15 -94 -22 -182 -26 -92 -3 -127 -8 -140 -20 -10 -9 -46
-19 -82 -22 -35 -4 -71 -12 -79 -20 -8 -7 -28 -16 -43 -19 -15 -4 -27 -11 -25
-16 2 -7 597 -22 873 -22 168 0 879 14 883 17 9 9 -95 53 -139 59 -25 3 -66
13 -90 21 -24 8 -96 19 -159 25 -63 6 -140 16 -170 22 -30 6 -81 11 -113 12
-56 2 -61 4 -95 44 -20 24 -53 49 -72 56 -31 12 -41 12 -80 -3z"/>
<path d="M1765 6170 l-250 -5 -8 -54 c-8 -58 8 -101 38 -101 8 0 22 -11 31
-25 13 -19 25 -25 67 -27 l52 -3 6 -105 c4 -58 7 -179 8 -270 1 -145 4 -171
21 -205 12 -23 20 -59 20 -88 0 -42 5 -55 40 -96 25 -29 40 -57 40 -74 0 -21
6 -28 28 -33 32 -8 92 -44 111 -68 8 -9 28 -16 49 -16 22 0 44 -8 57 -20 22
-20 33 -21 554 -20 505 0 534 1 584 20 29 11 62 20 74 20 13 0 42 19 68 44 25
25 54 47 64 51 9 3 25 20 34 38 10 17 33 53 53 79 l36 48 6 347 7 348 68 5
c60 4 69 8 80 30 9 19 22 26 49 28 l37 3 -6 52 c-10 93 -3 91 -311 98 -308 8
-1340 7 -1707 -1z"/>
<path d="M4777 6170 c-842 -6 -777 1 -777 -75 0 -43 22 -85 45 -85 8 0 22 -11
31 -25 15 -23 23 -26 65 -24 27 2 52 -1 56 -4 7 -8 9 -73 13 -399 2 -188 4
-209 21 -224 12 -11 19 -31 19 -54 0 -21 8 -48 18 -61 10 -13 29 -44 43 -67
19 -36 95 -102 116 -102 3 0 18 -11 35 -25 18 -16 42 -25 62 -25 20 0 40 -8
51 -20 18 -20 31 -20 557 -20 517 0 541 1 564 19 14 11 43 22 65 26 23 4 61
20 85 36 54 37 154 150 154 174 0 11 9 29 21 41 20 21 21 36 27 361 l7 338 68
3 c61 3 69 5 77 27 5 13 23 31 40 41 44 26 48 56 15 104 -15 21 -32 41 -39 43
-14 6 -349 5 -1439 -3z"/>
<path d="M320 5391 c-8 -5 -34 -12 -58 -16 -71 -11 -124 -48 -150 -102 -13
-26 -32 -65 -43 -85 -25 -48 -25 -114 1 -153 11 -16 20 -38 20 -47 0 -10 10
-37 21 -61 16 -33 33 -50 66 -66 24 -11 52 -21 62 -21 9 0 28 -12 42 -26 19
-20 31 -24 54 -21 50 9 108 24 142 38 29 12 37 10 85 -14 29 -15 59 -36 66
-48 9 -14 19 -18 32 -14 13 4 28 -2 45 -19 14 -14 34 -26 44 -26 10 0 23 -6
29 -13 6 -6 40 -27 76 -46 36 -18 66 -40 66 -47 0 -9 11 -14 29 -14 17 0 33
-6 37 -12 13 -21 14 -132 19 -1598 l4 -1415 23 -12 c17 -10 119 -13 396 -13
l372 0 11 24 c9 19 8 31 -7 58 -13 24 -19 59 -21 128 -1 52 -7 130 -13 173 -8
64 -7 83 5 106 10 21 14 69 16 177 1 144 2 150 26 176 21 22 24 33 19 62 -6
30 -3 39 19 58 20 18 25 31 25 71 0 40 3 50 20 54 15 4 20 14 20 38 0 19 8 39
20 50 11 10 20 26 20 36 0 28 11 49 26 49 8 0 14 10 14 24 0 13 8 34 18 47 10
13 28 44 40 69 13 26 49 69 87 103 36 32 65 63 65 68 0 31 82 122 145 161 27
18 76 58 108 90 31 32 63 58 71 58 7 0 21 9 31 20 10 11 26 20 35 20 9 0 31
11 50 25 19 14 42 25 52 25 10 0 27 9 38 20 11 11 31 20 45 20 14 0 29 8 36
21 9 17 17 20 45 14 45 -8 71 1 77 27 5 18 11 20 51 14 40 -6 48 -4 67 19 21
23 29 25 91 23 41 -2 72 1 76 8 16 24 128 35 305 32 165 -3 180 -5 193 -23 13
-18 25 -20 108 -18 86 2 95 0 115 -21 18 -19 29 -23 65 -19 37 5 44 2 60 -21
15 -23 22 -26 52 -20 25 4 42 1 62 -12 35 -24 80 -50 111 -64 14 -6 31 -20 38
-30 8 -12 26 -20 41 -20 16 0 32 -8 40 -20 7 -11 23 -20 37 -20 19 0 48 -23
109 -85 46 -47 87 -85 92 -85 21 0 86 -57 108 -94 14 -22 57 -75 96 -116 58
-61 83 -98 131 -197 33 -67 67 -127 75 -134 8 -6 14 -24 14 -39 0 -15 9 -35
20 -45 14 -13 20 -31 20 -60 0 -27 7 -50 20 -65 23 -27 35 -79 26 -116 -5 -20
-1 -33 15 -50 22 -24 25 -43 34 -249 6 -125 6 -112 0 -284 -4 -130 -6 -146
-26 -167 -19 -20 -20 -26 -9 -61 16 -49 26 -59 43 -45 10 9 532 12 2028 12
l2014 0 74 -65 c40 -35 86 -82 102 -104 16 -21 41 -42 54 -45 14 -4 31 -17 37
-31 14 -32 34 -38 64 -19 27 18 29 25 14 40 -12 12 67 97 149 159 28 22 51 46
51 55 0 9 -21 36 -46 60 -25 25 -52 57 -60 72 -8 15 -35 50 -62 79 -26 28 -50
56 -54 63 -4 7 -8 665 -8 1462 -1 797 -4 1458 -7 1470 -4 20 -11 21 -346 29
-335 8 -934 15 -1112 14 -49 -1 -1631 -2 -3515 -3 l-3426 -1 -29 23 c-51 39
-104 71 -130 78 -13 3 -29 12 -36 20 -6 8 -17 14 -23 14 -7 0 -43 20 -80 45
-38 25 -72 45 -76 45 -4 0 -15 9 -25 20 -10 11 -26 20 -35 20 -9 0 -32 12 -51
26 -19 14 -40 29 -48 34 -8 4 -17 33 -21 68 -13 105 -93 188 -202 211 -24 5
-52 12 -63 15 -11 3 -27 2 -35 -3z"/>
<path d="M3452 3530 c-11 -19 -23 -20 -158 -20 -145 0 -147 0 -170 -26 -21
-22 -29 -24 -68 -19 -39 6 -45 5 -51 -14 -7 -24 -43 -36 -78 -27 -17 4 -30 -1
-47 -19 -13 -14 -34 -25 -46 -25 -13 0 -29 -8 -36 -18 -7 -10 -52 -38 -99 -62
-75 -37 -105 -61 -220 -174 -171 -167 -256 -260 -265 -289 -3 -12 -10 -27 -15
-33 -15 -18 -56 -99 -64 -125 -4 -13 -16 -35 -26 -48 -11 -13 -19 -31 -19 -41
0 -9 -9 -25 -20 -35 -15 -13 -20 -31 -20 -65 0 -34 -5 -52 -20 -65 -13 -12
-20 -31 -20 -54 0 -20 -11 -70 -23 -111 -21 -66 -23 -99 -25 -282 -2 -178 0
-212 14 -240 9 -18 19 -64 22 -103 3 -42 10 -77 20 -87 8 -10 17 -40 20 -67 3
-32 11 -56 23 -67 11 -9 19 -22 19 -29 0 -16 59 -133 71 -140 5 -4 9 -17 9
-30 0 -14 8 -29 19 -34 10 -6 26 -29 35 -51 9 -23 43 -69 75 -103 33 -34 70
-75 83 -92 35 -46 49 -60 103 -101 28 -20 67 -57 88 -81 22 -25 48 -43 60 -43
11 0 27 -7 36 -15 9 -8 26 -23 39 -35 12 -11 29 -20 38 -20 24 0 54 -19 54
-35 0 -11 12 -15 40 -15 25 0 40 -5 40 -12 1 -29 16 -39 44 -28 23 8 34 7 60
-9 17 -10 48 -22 70 -25 21 -4 55 -16 75 -27 21 -11 55 -19 83 -19 26 0 69 -4
95 -9 168 -33 210 -35 291 -16 49 12 115 19 183 19 98 1 105 2 105 21 -1 17 6
20 49 23 30 2 58 10 70 21 11 10 43 21 70 25 28 3 55 12 60 20 13 16 101 56
127 56 10 0 21 7 24 15 3 8 25 23 48 34 23 12 52 30 64 41 11 11 25 20 29 20
4 0 87 81 185 179 114 116 180 190 184 208 4 15 12 35 19 43 22 27 65 114 65
133 0 11 9 21 20 24 13 4 20 14 20 30 0 32 17 63 34 63 21 0 26 24 14 64 -12
37 0 66 27 66 17 0 22 19 15 55 -6 31 14 150 29 169 12 17 5 416 -8 429 -6 6
-11 23 -11 38 0 37 -34 168 -54 204 -9 17 -16 37 -16 47 0 22 -40 129 -56 148
-15 18 -76 129 -103 185 -10 22 -33 54 -51 70 -17 17 -50 57 -73 90 -52 74
-94 115 -185 184 -40 30 -79 65 -87 77 -8 13 -50 39 -92 59 -43 19 -85 40 -93
45 -8 6 -34 19 -56 29 -23 11 -45 24 -48 30 -4 6 -24 11 -45 11 -22 0 -48 8
-62 19 -13 10 -44 21 -69 25 -25 4 -59 15 -75 26 -25 16 -48 20 -130 20 -92 1
-184 16 -201 33 -14 14 -49 7 -62 -13z m207 -384 c16 -15 30 -16 89 -11 63 7
72 5 91 -14 11 -11 40 -24 63 -27 24 -4 50 -12 58 -19 8 -7 26 -16 40 -20 14
-4 31 -16 38 -26 8 -11 25 -19 42 -19 16 0 35 -8 42 -18 7 -10 31 -29 53 -42
22 -13 64 -44 93 -69 43 -37 52 -50 47 -69 -5 -20 -3 -22 19 -16 19 4 30 -2
55 -33 64 -79 103 -136 137 -201 20 -37 40 -71 45 -76 5 -6 9 -17 9 -27 0 -9
9 -27 20 -41 12 -16 21 -49 26 -94 4 -41 13 -77 23 -88 18 -21 23 -151 14
-373 -6 -123 -8 -133 -26 -133 -18 0 -19 -5 -13 -53 6 -46 4 -56 -14 -72 -11
-10 -20 -28 -20 -39 0 -22 -82 -190 -106 -217 -8 -8 -14 -21 -14 -27 0 -6 -19
-34 -42 -61 -24 -27 -54 -65 -68 -85 -14 -19 -42 -48 -64 -63 -21 -15 -73 -56
-117 -91 -43 -34 -83 -62 -89 -62 -17 0 -122 -51 -150 -72 -18 -14 -33 -18
-57 -13 -25 4 -37 1 -55 -17 -19 -19 -38 -24 -106 -29 -45 -4 -95 -12 -111
-19 -61 -25 -360 3 -434 41 -21 10 -50 19 -65 19 -15 0 -67 20 -116 45 -49 25
-94 45 -101 45 -6 0 -32 20 -57 45 -25 25 -52 45 -59 45 -17 0 -79 60 -79 77
0 7 -6 13 -14 13 -21 0 -144 140 -187 214 -21 35 -63 117 -80 156 -11 25 -29
61 -40 81 -10 20 -19 52 -19 70 0 18 -7 40 -15 48 -9 11 -15 42 -16 91 -3 118
2 413 7 431 3 9 14 19 25 22 19 5 20 11 14 75 -7 63 -5 71 13 84 11 7 24 27
28 43 4 17 12 37 20 45 7 8 16 27 19 43 4 15 12 31 19 35 6 4 17 20 24 35 6
15 28 37 49 49 20 12 31 24 25 26 -20 6 -14 21 32 70 24 26 48 57 55 70 6 12
17 22 23 22 6 0 38 23 70 51 32 27 61 48 65 46 16 -9 48 11 53 34 5 20 12 24
41 24 28 0 35 4 37 24 3 21 8 23 38 18 31 -5 36 -3 45 20 9 23 13 25 66 21 51
-3 58 -1 61 17 6 30 21 35 89 28 44 -4 67 -2 78 7 27 22 78 29 197 27 95 -3
121 -6 137 -21z"/>
<path d="M3450 3044 c-19 -14 -36 -26 -37 -28 -2 -2 2 -16 8 -32 9 -21 12
-107 10 -301 l-3 -271 31 -16 c39 -21 54 -20 74 2 14 15 16 57 17 321 2 302 2
303 -21 327 -27 29 -35 29 -79 -2z"/>
<path d="M2770 2889 c0 -5 5 -7 10 -4 6 3 10 8 10 11 0 2 -4 4 -10 4 -5 0 -10
-5 -10 -11z"/>
<path d="M4181 2767 c-11 -18 -113 -124 -226 -236 -113 -111 -205 -208 -205
-216 0 -23 51 -76 71 -73 22 4 469 446 469 464 0 23 -12 44 -26 44 -7 0 -21
11 -30 25 -21 33 -28 32 -53 -8z"/>
<path d="M2755 2770 c-3 -11 -15 -20 -25 -20 -22 0 -33 -26 -21 -48 10 -19
475 -482 484 -482 10 0 47 67 47 86 0 12 -89 108 -225 244 -124 123 -225 228
-225 232 0 17 -29 7 -35 -12z"/>
<path d="M3470 2303 c-8 -3 -25 -17 -37 -30 -13 -14 -34 -23 -51 -23 -23 0
-44 -16 -104 -79 l-75 -79 11 -114 c12 -124 16 -132 100 -220 28 -30 44 -38
70 -38 47 0 66 -9 66 -30 0 -11 10 -20 25 -24 31 -8 77 3 69 16 -3 5 0 16 7
24 10 12 24 14 61 9 44 -6 48 -5 48 13 0 12 9 23 19 27 11 3 21 16 23 28 2 14
11 23 26 25 17 3 22 10 22 34 0 20 6 31 18 35 16 4 18 16 19 86 0 45 2 98 4
117 3 30 1 35 -19 38 -14 2 -27 15 -36 35 -16 40 -81 86 -137 98 -23 6 -55 21
-71 34 -31 26 -34 27 -58 18z"/>
<path d="M2425 2006 c-4 -19 -2 -43 4 -55 12 -21 17 -21 315 -21 276 0 306 2
326 18 19 15 20 22 13 52 l-9 35 -322 3 -321 2 -6 -34z"/>
<path d="M3905 2004 c-20 -49 -20 -51 18 -63 36 -12 628 -18 646 -7 6 4 11 22
11 41 0 69 22 65 -336 65 l-324 0 -15 -36z"/>
<path d="M2938 1514 c-126 -125 -228 -234 -228 -243 0 -21 50 -71 71 -71 8 0
117 103 243 229 179 179 227 232 222 247 -5 15 -38 42 -76 61 -3 1 -107 -99
-232 -223z"/>
<path d="M3790 1725 c-7 -8 -19 -15 -26 -15 -9 0 -14 -11 -14 -28 0 -23 40
-68 241 -267 l241 -240 24 28 c49 57 44 63 -205 310 -126 125 -234 227 -239
227 -5 0 -15 -7 -22 -15z"/>
<path d="M3443 1575 l-32 -13 13 -49 c9 -35 11 -117 8 -304 l-5 -256 36 -22
35 -21 40 26 c31 21 39 31 33 43 -13 24 -21 185 -22 396 0 118 -4 194 -11 202
-14 17 -55 16 -95 -2z"/>
<path d="M9998 1484 c-9 -10 -41 -20 -70 -24 -68 -10 -165 -73 -208 -135 -17
-25 -37 -45 -45 -45 -10 0 -15 -11 -15 -34 0 -18 -7 -39 -15 -46 -8 -7 -15
-25 -15 -41 0 -28 -12 -90 -33 -161 -8 -31 -6 -49 11 -103 12 -36 22 -78 22
-93 0 -16 7 -37 15 -48 8 -10 15 -26 15 -35 0 -25 196 -220 214 -213 9 3 25
-5 40 -21 22 -23 30 -26 68 -20 27 4 61 0 93 -9 61 -19 112 -20 145 -1 16 9
41 12 73 8 38 -5 47 -3 47 9 0 10 13 18 35 22 19 4 35 11 35 15 0 5 41 48 90
97 50 48 90 95 90 103 0 9 7 25 15 35 8 11 15 32 15 48 0 16 10 36 25 51 25
23 25 23 15 117 -26 243 -122 392 -308 482 -99 47 -102 48 -237 54 -85 4 -103
2 -117 -12z m250 -212 c26 -15 61 -36 77 -46 37 -23 95 -104 95 -134 0 -12 9
-39 20 -59 24 -45 25 -62 6 -105 -8 -18 -18 -51 -21 -73 -5 -33 -20 -53 -87
-119 -72 -70 -83 -78 -111 -73 -18 2 -44 -1 -58 -9 -20 -10 -36 -11 -60 -4
-19 6 -46 10 -61 10 -14 0 -39 11 -55 24 -16 14 -41 28 -56 31 -31 8 -38 16
-83 92 -30 48 -34 63 -29 95 5 30 4 38 -8 38 -9 0 -19 9 -22 20 -9 29 4 61 23
58 14 -3 17 6 17 49 0 40 6 57 23 76 12 13 22 29 22 36 0 6 15 18 33 26 17 7
38 23 45 35 10 16 21 20 45 18 27 -2 33 1 35 20 3 21 8 22 83 22 69 0 86 -4
127 -28z"/>
<path d="M5508 1053 c-3 -262 -1 -290 15 -312 9 -13 17 -38 17 -56 0 -28 14
-47 95 -129 l95 -96 65 0 c52 0 69 -4 85 -20 19 -19 32 -21 138 -19 98 2 120
6 135 21 13 13 33 18 72 18 42 0 60 5 75 20 11 11 27 20 36 20 22 0 134 113
134 136 0 9 8 26 17 37 16 17 18 49 18 322 1 167 -3 313 -7 324 -7 21 -12 21
-497 21 l-490 0 -3 -287z"/>
<path d="M6702 1328 c-9 -9 -12 -74 -12 -232 0 -243 13 -383 41 -436 11 -19
19 -38 19 -42 0 -12 100 -110 138 -135 25 -18 47 -23 92 -23 46 0 63 -4 77
-19 16 -17 32 -19 127 -19 89 0 114 3 140 19 20 12 49 19 83 19 45 0 58 5 102
40 28 22 76 64 106 94 52 50 55 56 55 102 0 37 5 54 20 67 19 16 20 29 20 184
-1 93 -5 199 -9 236 -6 44 -6 79 1 98 21 61 35 59 -501 59 -365 0 -490 -3
-499 -12z"/>
</g>
</svg>
